<?xml version="1.0" standalone="no"?>
<!DOCTYPE svg PUBLIC "-//W3C//DTD SVG 20010904//EN"
 "http://www.w3.org/TR/2001/REC-SVG-20010904/DTD/svg10.dtd">
<svg version="1.0" xmlns="http://www.w3.org/2000/svg"
 width="795.000000pt" height="779.000000pt" viewBox="0 0 795.000000 779.000000"
 preserveAspectRatio="xMidYMid meet">

<g transform="translate(0.000000,779.000000) scale(0.100000,-0.100000)"
fill="#000000" stroke="none">
<path d="M3390 6958 c-78 -30 -198 -152 -223 -226 -23 -68 -36 -236 -37 -464
0 -139 -3 -178 -13 -178 -15 0 -74 -60 -104 -105 -52 -78 -51 -74 -54 -641 -2
-477 -1 -532 14 -559 9 -16 17 -35 17 -40 0 -17 98 -115 115 -115 8 0 15 -3
15 -7 0 -5 12 -15 28 -22 21 -12 79 -16 252 -18 171 -2 226 -6 229 -15 8 -26
122 -165 158 -193 20 -17 45 -38 55 -47 10 -10 22 -18 27 -18 5 0 11 -6 14
-13 5 -14 195 -110 237 -120 29 -7 40 -2 63 33 14 21 17 52 17 202 l0 178 190
0 c187 0 191 0 242 27 101 53 166 145 189 266 6 36 9 229 7 519 l-3 463 -32
66 c-27 56 -113 159 -132 159 -3 0 -4 103 -3 230 2 134 -1 266 -7 317 -11 82
-46 183 -63 183 -5 0 -8 5 -8 10 0 13 -37 50 -50 50 -5 0 -10 4 -10 10 0 12
-67 47 -135 72 -45 16 -90 18 -495 17 -429 0 -447 -1 -500 -21z m955 -157 c33
-13 64 -35 92 -66 36 -42 43 -56 48 -109 8 -70 3 -421 -6 -430 -3 -3 -268 -7
-588 -8 l-583 -3 4 230 c6 251 11 276 67 332 16 16 53 39 83 51 51 20 71 21
443 21 360 1 394 0 440 -18z m170 -815 c66 -33 109 -74 131 -125 19 -45 21
-910 2 -975 -16 -55 -41 -86 -91 -113 -40 -22 -52 -23 -284 -23 l-243 0 0
-175 c0 -96 -3 -175 -6 -175 -11 0 -109 85 -169 146 -33 34 -76 93 -96 130
l-36 69 -248 3 -247 2 -33 26 c-19 14 -43 41 -54 60 -20 34 -21 49 -21 516 0
540 -3 517 76 587 24 21 67 48 96 59 52 20 66 21 608 19 l555 -2 60 -29z"/>
<path d="M3613 6581 c-18 -15 -23 -30 -23 -63 0 -38 4 -46 29 -61 25 -15 61
-17 284 -17 141 0 263 3 272 6 19 8 45 55 45 84 0 11 -11 32 -25 45 l-24 25
-268 0 c-247 -1 -270 -2 -290 -19z"/>
<path d="M3335 5558 c-11 -14 -19 -38 -19 -58 0 -20 8 -44 19 -57 19 -22 25
-23 190 -23 93 0 175 4 181 8 20 14 44 57 44 79 0 12 -11 34 -25 48 -26 25
-27 25 -198 25 -167 0 -173 -1 -192 -22z"/>
<path d="M3891 5563 c-34 -29 -37 -74 -8 -109 25 -28 28 -29 134 -32 96 -2
111 0 131 18 32 27 36 102 7 124 -31 24 -235 22 -264 -1z"/>
<path d="M3366 5145 c-19 -29 -20 -58 -4 -88 25 -47 17 -46 519 -47 l475 0 32
33 c37 38 40 64 11 101 l-20 26 -499 0 -498 0 -16 -25z"/>
<path d="M1120 6308 c-43 -20 -87 -53 -130 -97 -75 -77 -85 -92 -111 -173 -17
-55 -19 -92 -19 -383 0 -290 2 -327 19 -377 26 -76 40 -100 97 -166 64 -74
136 -113 279 -151 l40 -10 -3 -53 -3 -53 86 -55 c47 -30 94 -59 103 -65 9 -5
47 -29 84 -52 37 -24 72 -43 77 -43 6 0 11 -4 11 -8 0 -5 12 -15 28 -23 15 -8
46 -26 68 -41 23 -16 45 -28 48 -28 4 0 12 -5 19 -10 7 -6 43 -31 80 -56 l69
-45 86 3 c81 3 87 5 99 28 9 18 13 94 13 278 0 176 3 252 11 252 11 0 56 18
119 48 60 29 153 130 188 205 l32 67 0 361 c0 283 -3 367 -13 387 -8 15 -22
44 -32 65 -26 53 -109 136 -174 174 -11 7 -44 22 -73 33 -50 19 -77 20 -543
20 l-490 0 -65 -32z m1054 -154 c71 -34 116 -77 149 -143 l27 -53 0 -301 c0
-288 -1 -303 -22 -346 -56 -118 -192 -190 -360 -191 -49 0 -58 -3 -58 -18 0
-21 52 -127 75 -152 12 -13 15 -49 15 -185 0 -162 -1 -168 -18 -152 -10 10
-24 17 -30 17 -7 0 -12 4 -12 9 0 5 -12 14 -27 20 -16 6 -41 20 -58 31 -16 11
-37 23 -45 27 -18 10 -111 69 -221 141 -44 28 -83 52 -86 52 -4 0 -15 7 -25
17 -15 13 -18 31 -18 98 l0 83 -77 7 c-141 12 -178 27 -261 100 -19 16 -47 58
-63 92 l-29 62 0 276 c0 177 4 293 12 323 15 61 47 112 95 149 84 65 65 63
545 63 l437 0 55 -26z"/>
<path d="M1448 5869 c-25 -14 -25 -90 0 -112 16 -15 46 -17 209 -17 179 0 191
1 208 20 25 28 25 88 0 106 -23 17 -389 20 -417 3z"/>
<path d="M1194 5862 c-17 -11 -27 -50 -20 -85 15 -81 126 -60 126 23 0 23 -7
43 -18 53 -19 17 -68 22 -88 9z"/>
<path d="M2052 5858 c-17 -17 -15 -79 4 -107 14 -20 23 -22 57 -18 22 3 44 11
49 19 18 29 21 61 5 87 -12 21 -25 27 -59 29 -25 2 -48 -2 -56 -10z"/>
<path d="M1232 5568 c-18 -18 -15 -36 9 -43 23 -8 41 9 36 35 -3 19 -29 24
-45 8z"/>
<path d="M2121 5566 c-15 -18 -3 -46 20 -46 14 0 19 7 19 30 0 32 -19 40 -39
16z"/>
<path d="M1446 5501 c-24 -27 -25 -85 -1 -111 17 -19 29 -20 221 -20 178 0
206 2 224 17 26 22 26 80 1 111 -19 21 -24 22 -224 22 -189 0 -205 -1 -221
-19z"/>
<path d="M5485 6321 c-85 -35 -175 -101 -175 -129 0 -6 -4 -12 -9 -12 -13 0
-45 -57 -64 -114 -15 -43 -17 -99 -17 -410 0 -337 1 -365 20 -414 29 -75 39
-90 97 -147 52 -51 81 -69 166 -102 l48 -18 -2 -256 c-1 -176 2 -263 10 -278
11 -19 20 -21 96 -21 50 0 85 4 85 10 0 6 6 10 13 10 6 0 49 24 94 53 179 113
212 134 323 198 63 36 140 83 170 103 30 20 60 36 67 36 9 0 13 19 13 64 l0
64 77 11 c144 21 233 84 302 214 l42 77 9 158 c14 232 12 546 -4 618 -24 114
-112 217 -233 274 l-63 30 -513 -1 c-453 -1 -517 -3 -552 -18z m1049 -160 c53
-23 99 -65 129 -118 21 -37 22 -47 22 -388 0 -344 0 -351 -22 -386 -65 -103
-157 -144 -348 -153 l-80 -3 -3 -84 c-3 -66 -8 -88 -22 -101 -11 -10 -24 -18
-30 -18 -5 0 -10 -4 -10 -8 0 -5 -10 -14 -22 -21 -13 -6 -36 -20 -53 -31 -16
-11 -42 -25 -57 -31 -16 -6 -28 -15 -28 -20 0 -5 -6 -9 -13 -9 -8 0 -22 -9
-32 -20 -10 -11 -26 -20 -37 -20 -10 0 -18 -5 -18 -10 0 -6 -10 -15 -22 -21
-31 -13 -57 -29 -98 -59 -19 -14 -46 -31 -59 -38 l-24 -12 8 167 c5 138 10
172 24 188 19 22 46 85 55 128 l6 27 -58 0 c-164 0 -290 66 -345 180 -21 43
-22 61 -25 345 -3 293 -2 301 20 360 27 68 78 125 140 153 41 19 66 20 500 21
431 1 459 0 502 -18z"/>
<path d="M5600 5916 c0 -8 -4 -16 -10 -18 -5 -1 -12 -17 -16 -34 -5 -24 0 -36
24 -62 l31 -33 408 3 c390 3 409 4 431 23 16 14 22 30 22 61 0 77 19 74 -463
74 -362 0 -427 -2 -427 -14z"/>
<path d="M5590 5545 c-18 -29 -19 -38 -9 -57 32 -62 4 -58 451 -58 467 0 458
-2 458 75 0 78 19 75 -457 75 l-421 0 -22 -35z"/>
<path d="M3389 4391 c-65 -20 -109 -76 -109 -138 0 -93 109 -150 199 -105 97
48 91 196 -10 236 -43 18 -43 18 -80 7z"/>
<path d="M4365 4371 c-76 -33 -82 -171 -9 -226 47 -36 128 -36 166 0 37 34 53
95 37 143 -20 61 -49 83 -116 88 -32 2 -67 0 -78 -5z"/>
<path d="M1429 4104 c-33 -10 -66 -35 -131 -98 -49 -47 -88 -90 -88 -96 0 -6
-56 -10 -158 -10 -116 0 -163 -4 -176 -13 -18 -13 -19 -59 -17 -1127 2 -1007
4 -1115 18 -1139 30 -47 57 -72 102 -92 43 -19 90 -19 2882 -19 l2838 0 41 21
c23 12 49 33 58 48 9 14 20 29 25 32 5 3 13 24 17 45 13 53 13 2204 0 2224 -7
12 -42 16 -185 18 -108 2 -175 7 -175 13 0 18 -150 158 -192 180 -36 18 -53
21 -122 16 -115 -9 -220 -22 -301 -40 -38 -8 -131 -22 -205 -31 -130 -16 -199
-27 -396 -60 -50 -9 -103 -16 -118 -16 -15 0 -55 -6 -89 -14 -34 -8 -87 -19
-117 -25 -30 -6 -86 -20 -125 -31 -38 -12 -86 -25 -105 -30 -34 -8 -82 -24
-125 -41 -106 -43 -150 -62 -182 -81 -21 -11 -60 -33 -88 -47 -27 -14 -56 -31
-63 -38 -6 -6 -21 -15 -32 -18 -11 -3 -20 -11 -20 -16 0 -5 -5 -9 -11 -9 -10
0 -40 -20 -139 -98 -68 -52 -68 -53 -107 -74 -40 -23 -155 -25 -173 -3 -7 8
-17 15 -22 15 -6 0 -39 23 -74 50 -35 28 -66 50 -69 50 -3 0 -11 5 -18 10 -57
48 -111 83 -216 139 -14 8 -28 17 -31 21 -3 4 -27 17 -55 29 -62 28 -115 51
-138 63 -27 13 -230 78 -245 78 -8 0 -46 9 -85 19 -40 11 -117 27 -172 36
-238 38 -397 62 -595 90 -63 8 -176 24 -250 35 -313 46 -324 47 -371 34z m198
-173 c56 -6 124 -16 150 -22 26 -6 84 -14 128 -19 44 -4 114 -13 155 -20 76
-12 172 -26 360 -55 58 -8 130 -20 160 -26 30 -6 73 -12 95 -15 73 -9 280 -65
328 -90 16 -8 35 -14 43 -14 8 0 22 -4 32 -9 56 -30 105 -51 117 -51 8 0 15
-4 15 -9 0 -5 12 -14 28 -20 15 -6 36 -16 46 -23 66 -43 126 -78 134 -78 6 0
12 -7 16 -15 3 -8 10 -15 16 -15 5 0 18 -6 27 -14 39 -32 110 -83 146 -105 20
-12 37 -27 37 -32 0 -5 5 -9 10 -9 12 0 71 -40 82 -55 4 -5 8 -355 8 -778 l0
-767 -1212 2 -1213 3 -2 1035 c-2 690 1 1046 8 1067 22 68 127 160 169 148 8
-2 61 -9 117 -14z m4634 -17 c10 -11 29 -29 41 -41 13 -12 32 -39 43 -60 11
-21 23 -40 27 -43 3 -3 6 -471 5 -1040 l-2 -1035 -1227 -3 -1228 -2 0 602 c0
332 3 680 7 775 l6 171 39 18 c21 9 38 20 38 23 0 3 13 12 28 19 16 6 38 21
50 32 12 11 24 20 27 20 3 0 13 7 23 16 37 33 152 115 191 135 23 12 43 25 46
29 3 5 54 32 113 60 59 28 115 55 125 61 26 14 253 84 332 102 94 21 215 41
515 88 41 6 104 15 140 19 99 11 214 29 330 51 184 34 297 35 331 3z m-5091
-1199 l0 -1025 -75 0 -75 0 0 1025 0 1025 75 0 75 0 0 -1025z m5515 0 l0
-1020 -70 0 -70 0 -2 1010 c-1 556 0 1016 2 1023 3 9 24 12 72 10 l68 -3 0
-1020z"/>
<path d="M1556 3599 c-33 -26 -35 -82 -5 -118 18 -22 31 -25 117 -32 53 -4
133 -12 177 -18 225 -31 232 -32 258 -20 43 19 45 107 3 134 -11 8 -61 19
-111 25 -49 6 -139 17 -200 25 -200 26 -211 26 -239 4z"/>
<path d="M2281 3484 c-25 -32 -27 -61 -4 -94 23 -34 33 -40 71 -40 18 0 77 -7
130 -15 53 -7 153 -21 222 -30 69 -9 168 -22 220 -30 148 -22 208 -27 230 -20
29 9 53 60 45 96 -9 42 -39 57 -125 64 -41 3 -113 12 -160 20 -156 25 -305 45
-335 45 -17 0 -62 7 -100 15 -39 8 -93 15 -122 15 -44 0 -55 -4 -72 -26z"/>
<path d="M1560 3138 c-31 -33 -36 -66 -15 -104 21 -38 25 -40 174 -54 64 -6
160 -18 213 -26 172 -25 198 -16 198 65 0 56 -27 80 -90 81 -25 0 -83 7 -130
15 -47 8 -105 15 -130 15 -25 1 -72 7 -105 15 -80 20 -91 19 -115 -7z"/>
<path d="M2277 3052 c-23 -26 -22 -84 3 -112 16 -19 34 -24 97 -30 43 -4 115
-12 161 -19 45 -6 119 -16 165 -22 45 -6 92 -13 104 -16 32 -7 73 37 73 79 -1
70 -29 83 -221 103 -85 9 -176 21 -203 26 -83 15 -161 12 -179 -9z"/>
<path d="M3031 2969 c-88 -87 24 -213 118 -133 23 19 31 34 31 59 0 50 -9 64
-51 85 -51 27 -62 25 -98 -11z"/>
<path d="M1557 2658 c-34 -30 -38 -93 -7 -128 19 -21 32 -24 138 -31 64 -4
161 -15 214 -23 54 -9 113 -16 131 -16 47 0 77 31 77 80 0 50 -27 80 -72 80
-18 0 -80 6 -138 14 -58 8 -143 19 -190 25 -47 6 -94 13 -105 16 -13 4 -30 -2
-48 -17z"/>
<path d="M2288 2580 c-39 -30 -38 -81 1 -121 27 -26 36 -29 95 -29 37 0 110
-6 164 -14 53 -8 138 -17 188 -21 102 -7 123 2 125 53 4 92 -9 101 -161 112
-68 6 -149 14 -179 19 -31 6 -90 13 -131 16 -67 6 -78 5 -102 -15z"/>
<path d="M3006 2495 c-19 -19 -29 -69 -21 -97 16 -51 32 -58 127 -58 49 0 98
4 108 10 27 15 44 71 29 103 -15 33 -46 44 -146 51 -64 4 -85 2 -97 -9z"/>
<path d="M3450 2417 c-22 -11 -25 -19 -23 -61 1 -52 16 -76 44 -76 55 0 81 94
37 131 -27 22 -27 22 -58 6z"/>
<path d="M1553 2175 c-18 -13 -23 -26 -23 -59 0 -58 32 -96 80 -96 34 0 177
-13 510 -46 235 -23 284 -23 309 0 15 14 21 31 21 61 0 56 -22 75 -86 75 -45
0 -216 17 -544 55 -228 26 -243 27 -267 10z"/>
<path d="M2581 2069 c-26 -28 -27 -69 -3 -99 14 -18 37 -26 98 -36 43 -7 99
-13 124 -13 43 -1 154 -13 425 -46 167 -21 169 -21 201 20 46 60 10 125 -69
125 -24 0 -68 4 -98 10 -30 5 -103 14 -164 20 -60 5 -141 14 -180 19 -38 5
-125 12 -191 16 -118 6 -122 6 -143 -16z"/>
<path d="M5910 3595 c-186 -28 -317 -45 -353 -45 -31 0 -40 -5 -57 -32 -24
-40 -25 -71 -4 -103 14 -21 24 -25 64 -25 26 0 72 5 101 11 30 5 90 14 134 19
279 31 269 29 293 56 14 16 22 38 22 62 0 31 -5 40 -31 55 -35 20 -52 20 -169
2z"/>
<path d="M5165 3494 c-33 -7 -85 -13 -115 -14 -30 0 -84 -7 -120 -15 -36 -8
-82 -14 -102 -15 -45 0 -68 -28 -68 -82 0 -55 30 -82 84 -75 168 20 448 58
471 62 21 4 55 52 55 78 0 9 -12 29 -26 46 -22 27 -32 31 -72 30 -26 -1 -74
-7 -107 -15z"/>
<path d="M4498 3390 c-20 -13 -32 -60 -23 -99 13 -59 97 -62 112 -3 5 21 -2
90 -10 98 -10 10 -64 13 -79 4z"/>
<path d="M5914 3130 c-50 -4 -100 -11 -111 -14 -11 -3 -74 -10 -140 -15 -67
-5 -130 -15 -142 -22 -38 -25 -39 -119 -1 -139 17 -9 242 4 260 15 4 2 61 9
127 14 173 15 202 30 203 103 0 27 -6 41 -22 52 -24 17 -33 17 -174 6z"/>
<path d="M5150 3053 c-58 -7 -168 -23 -245 -33 -77 -11 -198 -26 -269 -34
-102 -11 -133 -18 -143 -32 -21 -29 -15 -71 15 -105 l28 -32 145 17 c79 9 200
23 269 31 69 8 170 19 225 25 140 15 160 23 178 68 17 41 10 65 -27 94 -24 20
-35 20 -176 1z"/>
<path d="M4165 2897 c-18 -15 -28 -36 -32 -64 -5 -39 -2 -46 30 -78 46 -46 82
-47 125 -2 43 44 45 107 6 143 -34 32 -93 32 -129 1z m116 -4 c21 -25 18 -107
-5 -132 -33 -36 -88 -26 -111 20 -22 41 -18 77 10 104 29 30 85 34 106 8z"/>
<path d="M5975 2653 c-22 -2 -89 -10 -150 -18 -60 -8 -144 -17 -186 -20 -41
-4 -86 -12 -99 -18 -47 -24 -43 -119 5 -137 25 -10 184 2 335 25 55 8 117 15
139 15 32 0 44 6 65 31 64 75 12 133 -109 122z"/>
<path d="M5200 2579 c-25 -5 -99 -13 -165 -19 -133 -10 -180 -23 -195 -50 -17
-31 -11 -79 11 -101 20 -20 28 -21 138 -15 99 6 268 24 387 42 25 3 36 13 49
41 17 36 17 38 -2 73 l-21 35 -78 2 c-44 0 -99 -3 -124 -8z"/>
<path d="M4545 2503 c-70 -6 -309 -34 -325 -39 -8 -2 -21 -16 -27 -31 -42 -91
23 -142 142 -113 22 6 105 14 185 19 80 5 153 13 162 16 21 8 58 65 58 89 0 9
-11 28 -25 41 -25 26 -50 28 -170 18z"/>
<path d="M5920 2164 c-52 -7 -122 -13 -155 -13 -33 0 -141 -10 -240 -22 -202
-24 -215 -30 -215 -97 0 -48 24 -72 71 -72 19 0 104 6 189 15 85 8 231 21 325
30 147 13 172 18 192 37 32 30 32 92 1 119 -26 21 -37 21 -168 3z"/>
<path d="M5030 2090 c-30 -5 -86 -8 -125 -9 -38 -1 -126 -7 -195 -15 -69 -8
-197 -22 -284 -32 -139 -14 -162 -19 -177 -38 -27 -31 -24 -80 6 -111 30 -29
29 -29 188 -11 67 8 201 22 297 30 96 8 234 20 305 27 131 11 160 19 182 48
17 22 16 72 -3 99 -13 19 -24 22 -77 21 -34 -1 -87 -5 -117 -9z"/>
<path d="M3805 4029 c-74 -17 -145 -108 -145 -185 0 -35 43 -124 72 -152 63
-58 201 -50 264 15 34 34 65 109 63 152 -3 118 -126 200 -254 170z"/>
<path d="M4793 1263 c-49 -9 -72 -93 -35 -126 26 -24 75 -31 103 -17 32 17 39
29 39 66 0 55 -47 88 -107 77z"/>
<path d="M936 1244 c-23 -22 -21 -87 3 -108 17 -15 40 -17 200 -14 201 3 201
3 201 69 0 65 -13 69 -213 69 -146 0 -178 -3 -191 -16z"/>
<path d="M1699 1236 c-21 -45 7 -95 45 -80 7 3 19 17 25 31 9 21 9 30 -4 49
-20 31 -52 31 -66 0z"/>
<path d="M1957 1242 c-23 -25 -21 -78 3 -102 18 -18 33 -20 155 -20 125 0 136
1 155 22 22 24 26 68 10 99 -10 17 -23 19 -159 19 -131 0 -150 -2 -164 -18z"/>
<path d="M2752 1248 c-19 -19 -14 -83 7 -109 16 -20 28 -24 68 -23 26 0 60 6
76 12 24 10 27 16 27 61 0 39 -4 53 -19 61 -27 14 -144 13 -159 -2z"/>
<path d="M3222 1240 c-6 -11 -12 -38 -12 -60 0 -34 4 -42 30 -55 24 -13 35
-13 53 -4 49 27 61 76 28 117 -25 29 -81 30 -99 2z"/>
<path d="M3539 1244 c-7 -9 -14 -34 -14 -56 0 -68 2 -68 320 -68 323 0 325 1
325 74 0 23 -5 47 -12 54 -9 9 -91 12 -309 12 -262 0 -298 -2 -310 -16z"/>
<path d="M4375 1252 c-21 -15 -37 -61 -31 -86 3 -14 17 -33 30 -41 46 -31 98
20 80 78 -14 46 -52 69 -79 49z"/>
<path d="M5206 1235 c-24 -37 -20 -70 11 -95 25 -20 38 -21 135 -18 58 2 109
6 113 9 12 13 16 75 6 102 l-11 27 -119 0 c-115 0 -119 -1 -135 -25z"/>
<path d="M5618 1235 c-25 -33 -23 -80 4 -105 26 -24 31 -24 68 -5 25 13 30 21
30 53 -1 72 -66 108 -102 57z"/>
<path d="M5890 1241 c-16 -31 -12 -79 10 -101 17 -17 33 -20 125 -20 94 0 106
2 125 22 25 27 26 79 2 101 -15 14 -41 17 -135 17 -105 0 -117 -2 -127 -19z"/>
<path d="M6433 1248 c-30 -40 -18 -112 21 -122 34 -8 322 -10 335 -2 6 4 18
21 27 38 15 28 14 33 -2 64 l-19 34 -176 0 c-129 0 -179 -3 -186 -12z"/>
</g>
</svg>
